<svg xmlns="http://www.w3.org/2000/svg" viewBox="0 0 512 512"><path d="M412.878 183.025H99.121c-11.422 0-20.682 9.26-20.682 20.682 0 11.422 9.26 20.682 20.682 20.682h313.758c11.423 0 20.681-9.26 20.681-20.682 0-11.422-9.259-20.682-20.682-20.682zm78.44-104.586H20.682C9.26 78.439 0 87.699 0 99.121c0 11.422 9.26 20.682 20.682 20.682h470.636c11.423 0 20.682-9.26 20.682-20.682 0-11.422-9.259-20.682-20.682-20.682zm0 209.171H20.682C9.26 287.61 0 296.869 0 308.292c0 11.423 9.26 20.682 20.682 20.682h470.636c11.423 0 20.682-9.259 20.682-20.682 0-11.423-9.259-20.682-20.682-20.682zm-78.44 104.587H99.121c-11.422 0-20.682 9.259-20.682 20.682s9.26 20.682 20.682 20.682h313.758c11.423 0 20.681-9.259 20.681-20.682s-9.259-20.682-20.682-20.682z"/></svg>